<svg xmlns="http://www.w3.org/2000/svg" viewBox="0 0 48 48" fill="none">
  <path d="m20 5 1 5a15 15 0 0 1 6 0l1-5 6 2-2 5a15 15 0 0 1 4 4l5-2 2 6-5 2
           a15 15 0 0 1 0 5l5 2-2 6-5-2a15 15 0 0 1-4 4l2 5-6 2-1-5
           a15 15 0 0 1-6 0l-1 5-6-2 2-5a15 15 0 0 1-4-4l-5 2-2-6 5-2
           a15 15 0 0 1 0-5l-5-2 2-6 5 2a15 15 0 0 1 4-4l-2-5 6-2Z"
        stroke="#B9BEC3" stroke-width="2.4" stroke-linejoin="round"/>
  <circle cx="24" cy="24" r="6" stroke="#B9BEC3" stroke-width="3"/>
</svg>
